<?xml version="1.0" encoding="utf-8"?>
<!-- Generator: Adobe Illustrator 15.0.2, SVG Export Plug-In . SVG Version: 6.00 Build 0)  -->
<!DOCTYPE svg PUBLIC "-//W3C//DTD SVG 1.1//EN" "http://www.w3.org/Graphics/SVG/1.1/DTD/svg11.dtd">
<svg version="1.1" id="Layer_1" xmlns="http://www.w3.org/2000/svg" xmlns:xlink="http://www.w3.org/1999/xlink" x="0px" y="0px"
	 width="1000px" height="430.89px" viewBox="0 0 1000 430.89" enable-background="new 0 0 1000 430.89" xml:space="preserve">
<g>
	<path fill="none" d="M64.041,376.821l-1.745-0.296c0.21-1.234,0.266-2.065,0.166-2.49c-0.099-0.425-0.443-0.987-1.031-1.687
		s-2.151-2.327-4.685-4.883l-8.75-8.88l-8.75,3.299c-0.738,0.292-2.076,0.894-4.017,1.806c-1.939,0.911-3.437,1.749-4.489,2.513
		c-0.417,0.327-0.708,0.645-0.869,0.953c-0.161,0.308-0.383,1.29-0.665,2.945l-1.532-0.261l0.045-7.933
		c0.572-0.592,1.277-1.116,2.114-1.571c1.199-0.648,3.218-1.5,6.063-2.558l8.459-3.127c-6.765-6.718-10.496-10.228-11.188-10.527
		l-2.114-0.359c0.395-1.891,0.65-3.188,0.771-3.894c0.121-0.704,0.268-1.776,0.439-3.216l1.612,0.275
		c-0.135,1.116-0.188,1.823-0.157,2.118c0.032,0.297,0.099,0.568,0.201,0.821c0.157,0.354,0.545,0.899,1.161,1.636
		c0.616,0.741,1.903,2.129,3.856,4.168c1.954,2.039,3.762,3.914,5.428,5.633l2.321,2.426l15.978-6.488
		c2.08-0.843,3.477-1.494,4.189-1.952c0.345-0.214,0.588-0.471,0.73-0.773c0.142-0.303,0.321-1.033,0.538-2.192l1.744,0.297
		c-0.397,1.908-0.653,3.196-0.767,3.866c-0.126,0.74-0.315,2.06-0.565,3.956c-1.766,0.787-3.491,1.497-5.178,2.136l-13.049,4.923
		l4.187,4.162c4.37,4.147,7.325,6.704,8.865,7.674l1.894,0.376c-0.383,1.825-0.629,3.056-0.737,3.693
		C64.441,373.834,64.284,374.971,64.041,376.821z"/>
	<path fill="none" d="M69.921,317.479l1.759,1.17c0.555,1.345,0.905,2.321,1.06,2.927c0.23,0.891,0.376,1.891,0.455,3.001
		c0.074,1.108,0.01,2.255-0.191,3.435c-0.396,2.326-1.238,4.349-2.529,6.068c-1.29,1.722-2.989,2.94-5.096,3.662
		c-2.108,0.719-4.457,0.858-7.047,0.417c-2.026-0.345-3.806-0.934-5.341-1.767c-1.536-0.832-2.631-1.667-3.287-2.504
		c-0.477-0.605-0.989-1.51-1.537-2.709c-0.549-1.2-0.944-2.363-1.187-3.492c-0.345-1.491-0.379-3.047-0.103-4.668
		c0.336-1.973,1.089-3.681,2.259-5.123c1.17-1.44,2.593-2.399,4.27-2.875c1.677-0.477,3.493-0.547,5.447-0.215
		c0.495,0.083,1.086,0.229,1.775,0.438c0.031,1.309-0.004,2.47-0.104,3.486c-0.182,1.922-0.436,3.836-0.759,5.736l-1.442,8.471
		c2.534,0.395,4.652,0.306,6.354-0.266c1.71-0.57,3.056-1.527,4.052-2.873c0.989-1.344,1.62-2.81,1.89-4.395
		c0.182-1.075,0.189-2.176,0.027-3.3c-0.171-1.126-0.581-2.552-1.248-4.278L69.921,317.479z M56.236,332.58
		c0.137-0.484,0.348-1.41,0.635-2.774c0.536-2.609,0.888-4.408,1.055-5.396c0.399-2.342,0.617-3.891,0.655-4.647
		c-0.421-0.088-0.744-0.153-0.973-0.192c-2.785-0.474-4.924-0.258-6.42,0.648c-1.496,0.904-2.404,2.301-2.726,4.186
		c-0.339,1.99,0.102,3.716,1.323,5.175C51.006,331.036,53.156,332.038,56.236,332.58z"/>
	<path fill="none" d="M76.684,304.325l-3.867,0.483l-8.594,1.065c-2.483,0.305-4.889,0.633-7.22,0.988
		c-2.329,0.355-3.68,0.625-4.055,0.805c-0.377,0.181-0.666,0.431-0.864,0.75c-0.199,0.319-0.476,1.139-0.826,2.457l-1.508-0.256
		c0.455-1.918,0.871-3.986,1.249-6.206c0.402-2.361,0.715-4.573,0.939-6.64l1.506,0.257c-0.261,1.642-0.382,2.719-0.359,3.23
		c0.014,0.347,0.101,0.61,0.259,0.792c0.163,0.181,0.366,0.292,0.612,0.334c0.405,0.069,1.534-0.002,3.385-0.212l8.931-1.005
		c1.495-0.163,3.125-0.391,4.88-0.69l-4.252-2.79l-8.028-5.368c-1.903-1.269-3.835-2.485-5.791-3.653l0.22-1.294
		c3.42-0.616,5.684-1.042,6.795-1.289l8.177-1.732c2.75-0.602,4.82-1.053,6.21-1.36l-4.874-2.867
		c-3.129-1.854-5.812-3.346-8.051-4.469c-1.22-0.626-2.095-0.982-2.624-1.073c-0.493-0.084-0.881,0.026-1.16,0.333
		s-0.601,1.428-0.966,3.358l-1.506-0.257c0.58-2.659,0.957-4.497,1.131-5.521c0.209-1.235,0.433-2.922,0.67-5.062l1.507,0.257
		c-0.156,1.025-0.181,1.728-0.074,2.11c0.108,0.379,0.333,0.735,0.678,1.066c0.521,0.56,1.811,1.514,3.868,2.861l6.141,3.9
		l2.762,1.694c0.542,0.329,2.215,1.312,5.022,2.95c1.189,0.709,2.236,1.269,3.146,1.677l-0.423,2.484l-3.52,0.706l-16.171,3.449
		l5.041,3.47l6.125,4.112c1.417,0.948,2.625,1.725,3.628,2.332l2.283,1.286L76.684,304.325z"/>
	<path fill="none" d="M70.284,266.604c-3.951-0.672-6.959-2.476-9.027-5.412c-2.067-2.936-2.767-6.367-2.099-10.297
		c0.63-3.699,2.308-6.513,5.032-8.443c2.724-1.929,5.928-2.581,9.614-1.954c2.579,0.439,4.828,1.439,6.755,3
		c1.933,1.562,3.314,3.538,4.149,5.929c0.839,2.39,1.032,4.898,0.585,7.523c-0.348,2.043-0.986,3.716-1.915,5.018
		c-0.928,1.301-1.988,2.304-3.181,3.007c-1.19,0.704-2.375,1.192-3.545,1.463C74.596,266.921,72.473,266.977,70.284,266.604z
		 M69.177,261.277c2.169,0.37,4.438,0.383,6.799,0.042c2.365-0.341,4.177-1.106,5.439-2.296c1.268-1.19,2.036-2.586,2.309-4.188
		c0.348-2.044-0.171-3.892-1.558-5.542c-1.392-1.65-3.772-2.762-7.137-3.336c-2.809-0.478-5.299-0.48-7.475-0.008
		s-3.793,1.271-4.846,2.397c-1.055,1.125-1.712,2.455-1.973,3.988c-0.369,2.167,0.116,4.058,1.457,5.673
		C63.533,259.623,65.859,260.712,69.177,261.277z"/>
	<path fill="none" d="M87.391,239.685l-1.506-0.256c0.305-2.006,0.455-3.096,0.446-3.26c-0.003-0.309-0.046-0.553-0.136-0.721
		c-0.089-0.168-0.231-0.321-0.428-0.444c-0.375-0.246-0.991-0.459-1.848-0.642c-4.689-0.889-7.14-1.35-7.352-1.387l-3.146-0.535
		c-1.409-0.24-2.929-0.472-4.56-0.695c-1.044-0.141-1.674-0.172-1.888-0.089c-0.212,0.081-0.393,0.259-0.54,0.533
		c-0.146,0.274-0.381,1.417-0.706,3.429l-1.506-0.257c0.112-3.642-0.088-6.351-0.602-8.125c-0.116-0.382-0.164-0.635-0.143-0.759
		c0.021-0.123,0.081-0.211,0.182-0.268c0.1-0.055,0.237-0.068,0.415-0.038c0.123,0.021,0.263,0.054,0.417,0.098
		c1.061,0.271,2.716,0.607,4.969,1.009c-0.781-0.949-1.565-1.834-2.35-2.657c-0.784-0.823-1.283-1.406-1.497-1.75
		c-0.368-0.606-0.63-1.277-0.786-2.01c-0.156-0.734-0.171-1.471-0.045-2.211c0.125-0.739,0.409-1.443,0.849-2.112l0.397-0.095
		c2.298,0.663,4.334,1.164,6.108,1.502l-0.202,1.189c-0.916,0.26-1.613,0.626-2.091,1.098c-0.479,0.472-0.788,1.113-0.925,1.924
		c-0.231,1.356,0.131,2.605,1.088,3.748c0.957,1.141,2.554,1.902,4.792,2.284l2.723,0.463c1.162,0.198,3.292,0.517,6.391,0.953
		c1.095,0.169,1.798,0.243,2.11,0.224c0.312-0.02,0.543-0.075,0.695-0.167c0.153-0.093,0.294-0.263,0.427-0.513
		c0.25-0.502,0.65-1.902,1.205-4.2l1.506,0.256c-0.652,3.08-1.164,5.711-1.535,7.897C87.938,235.355,87.627,237.55,87.391,239.685z"
		/>
	<path fill="none" d="M91.049,218.199l-1.507-0.256l0.397-2.49c0.047-0.39,0.032-0.696-0.048-0.918
		c-0.081-0.222-0.2-0.401-0.357-0.538c-0.319-0.253-0.926-0.475-1.819-0.664c-0.225-0.056-2.739-0.547-7.543-1.474l-10.962-1.866
		c-2.94-0.501-5.981-0.974-9.133-1.42c-2.125-0.288-3.319-0.393-3.588-0.311c-0.19,0.058-0.336,0.178-0.442,0.365
		c-0.169,0.248-0.438,1.457-0.809,3.637l-1.559-0.266c0.184-4.065,0.038-6.936-0.438-8.613c-0.066-0.247-0.09-0.432-0.068-0.556
		c0.021-0.123,0.077-0.213,0.168-0.271c0.091-0.057,0.208-0.074,0.348-0.05c0.123,0.021,0.296,0.069,0.52,0.143l0.866,0.175
		c3.137,0.625,5.813,1.135,8.029,1.531l4.111,0.754l13.708,2.334c4.589,0.709,7.067,1.085,7.44,1.131
		c0.884,0.132,1.545,0.136,1.983,0.012c0.17-0.045,0.326-0.126,0.464-0.252c0.139-0.121,0.268-0.322,0.387-0.592
		c0.039-0.12,0.232-1.102,0.582-2.938l1.506,0.257c-0.532,2.375-0.951,4.47-1.261,6.285
		C91.731,213.075,91.406,215.359,91.049,218.199z"/>
	<path fill="none" d="M93.374,179.733l1.759,1.171c0.555,1.345,0.905,2.319,1.061,2.927c0.229,0.891,0.376,1.89,0.455,3
		c0.074,1.109,0.01,2.255-0.191,3.435c-0.396,2.326-1.238,4.349-2.528,6.068c-1.291,1.722-2.989,2.941-5.097,3.661
		c-2.107,0.72-4.457,0.859-7.046,0.418c-2.026-0.346-3.807-0.934-5.342-1.767s-2.63-1.667-3.287-2.503
		c-0.477-0.607-0.989-1.511-1.537-2.709c-0.549-1.199-0.944-2.363-1.187-3.493c-0.345-1.491-0.378-3.047-0.102-4.667
		c0.335-1.974,1.088-3.681,2.258-5.123c1.171-1.442,2.593-2.4,4.271-2.876c1.676-0.477,3.492-0.547,5.448-0.214
		c0.493,0.083,1.085,0.23,1.774,0.438c0.031,1.311-0.003,2.47-0.104,3.486c-0.183,1.922-0.436,3.837-0.76,5.735l-1.442,8.47
		c2.535,0.396,4.652,0.307,6.355-0.264c1.709-0.57,3.055-1.529,4.051-2.874c0.99-1.345,1.62-2.811,1.891-4.396
		c0.183-1.075,0.189-2.174,0.027-3.299c-0.172-1.126-0.582-2.55-1.248-4.278L93.374,179.733z M79.69,194.835
		c0.137-0.483,0.348-1.409,0.635-2.774c0.535-2.61,0.887-4.409,1.055-5.396c0.399-2.343,0.617-3.893,0.655-4.647
		c-0.42-0.088-0.745-0.153-0.974-0.193c-2.784-0.474-4.924-0.258-6.42,0.648c-1.495,0.905-2.404,2.3-2.725,4.186
		c-0.338,1.992,0.102,3.716,1.322,5.175S76.609,194.293,79.69,194.835z"/>
	<path fill="none" d="M98.606,174.452c-2.184-0.59-3.565-0.942-4.143-1.059c-3.797-0.755-6.035-1.19-6.705-1.304l-11.751-2.001
		c-2.942-0.501-5.985-0.974-9.134-1.419c-2.125-0.29-3.32-0.393-3.589-0.312c-0.19,0.058-0.337,0.178-0.443,0.364
		c-0.168,0.248-0.438,1.457-0.809,3.638l-1.559-0.266c0.184-4.065,0.039-6.937-0.438-8.613c-0.066-0.247-0.089-0.433-0.068-0.556
		c0.021-0.124,0.077-0.215,0.169-0.271c0.091-0.057,0.207-0.073,0.348-0.049c0.123,0.021,0.296,0.068,0.518,0.142l0.867,0.175
		c3.135,0.625,5.808,1.134,8.023,1.529L74,165.203l5.227,0.891l-2.947-4.255c-0.324-0.545-0.587-1.396-0.789-2.554
		s-0.197-2.355,0.013-3.588c0.329-1.937,1.077-3.579,2.238-4.921c1.164-1.343,2.64-2.274,4.433-2.793
		c1.793-0.52,3.693-0.608,5.702-0.267c1.55,0.264,2.983,0.744,4.297,1.438c1.314,0.696,2.456,1.497,3.425,2.405
		c0.738,0.67,1.225,1.215,1.462,1.636l2.118,4.331c0.896,1.767,1.432,3.118,1.607,4.054c0.176,0.937,0.147,2.092-0.086,3.466
		c-0.201,1.18-0.546,2.245-1.034,3.196c-0.488,0.951-1.224,1.923-2.209,2.915l1.644,2.482L98.606,174.452z M82.397,166.633
		l9.911,1.688c0.88,0.15,1.452,0.197,1.716,0.142c0.263-0.055,0.639-0.294,1.129-0.719c0.742-0.634,1.382-1.41,1.919-2.325
		c0.537-0.915,0.896-1.918,1.083-3.01c0.435-2.555-0.216-4.688-1.955-6.397c-1.74-1.71-4.063-2.813-6.971-3.308
		c-2.061-0.351-3.844-0.319-5.346,0.096c-1.503,0.415-2.7,1.136-3.59,2.162c-0.892,1.027-1.458,2.254-1.702,3.68
		c-0.285,1.675-0.06,3.254,0.676,4.738C80.002,164.866,81.045,165.95,82.397,166.633z"/>
	<path fill="none" d="M81.466,143.033l-1.506-0.256c0.194-3.485-0.057-6.482-0.753-8.994l0.522-0.51
		c3.728,0.781,6.588,1.34,8.579,1.68l4.81,0.818c4.595,0.692,7.08,1.061,7.453,1.106c0.884,0.132,1.544,0.146,1.979,0.039
		c0.173-0.062,0.33-0.153,0.468-0.274c0.139-0.121,0.267-0.317,0.385-0.588c0.037-0.102,0.229-1.076,0.58-2.919l1.506,0.256
		c-0.58,2.657-1.005,4.788-1.278,6.391c-0.241,1.41-0.572,3.728-0.994,6.956l-1.507-0.256l0.404-2.533
		c0.045-0.374,0.029-0.675-0.051-0.897c-0.08-0.222-0.198-0.401-0.355-0.542c-0.32-0.253-0.925-0.484-1.814-0.689
		c-0.229-0.04-2.75-0.514-7.563-1.424l-4.651-0.792c-2.625-0.447-4.2-0.625-4.723-0.533c-0.282,0.061-0.513,0.217-0.691,0.468
		C82.086,139.79,81.82,140.955,81.466,143.033z M67.104,133.952c0.141-0.829,0.55-1.479,1.23-1.952c0.679-0.474,1.432-0.64,2.26-0.5
		c0.81,0.138,1.456,0.548,1.938,1.228c0.483,0.681,0.656,1.427,0.518,2.237c-0.141,0.828-0.552,1.483-1.232,1.965
		c-0.68,0.482-1.426,0.655-2.236,0.518c-0.828-0.142-1.482-0.552-1.965-1.233C67.133,135.535,66.963,134.78,67.104,133.952z"/>
</g>
<g>
	<polygon fill="none" points="371.435,130.342 306.13,130.342 288.421,228.852 344.872,228.852 337.676,270.357 281.227,270.357 
		261.856,379.383 327.629,379.383 400.935,252.097 378.987,104.941 	"/>
	<path fill="none" d="M896.575,130.342h-1.661l-19.369,109.025h1.661c29.886,0,53.681-24.906,58.663-54.79
		C941.403,154.693,926.462,130.342,896.575,130.342z"/>
	<path fill="none" d="M114.429,141.41h-2.213L72.369,368.314h2.214c33.759,0,74.239-47.989,83.814-110.771
		C169.44,185.145,152.821,141.41,114.429,141.41z"/>
	<path fill="#A61E22" d="M128.988,88.834H68.664L10,420.89h52.6c66.412,0,137.97-71.393,154.575-166.029
		C233.776,160.227,195.397,88.834,128.988,88.834z M158.397,257.543c-9.575,62.782-50.055,110.771-83.814,110.771h-2.214
		l39.847-226.905h2.213C152.821,141.41,169.44,185.145,158.397,257.543z"/>
	<polygon fill="#A61E22" points="715.994,270.357 780.166,270.357 787.359,228.852 723.188,228.852 740.896,130.342 
		803.628,130.342 813.396,88.834 687.407,88.834 628.744,420.89 774.051,420.89 783.819,379.383 696.623,379.383 	"/>
	<path fill="#A61E22" d="M988.445,184.577c9.406-53.128-26.012-95.743-79.141-95.743h-65.307l-58.66,332.055h58.109l23.798-135.035
		l48.681,135.035h67.57c-30.265-85.718-56.482-153.299-56.482-153.299C959.667,249.328,982.91,217.229,988.445,184.577z
		 M935.869,184.577c-4.982,29.884-28.777,54.79-58.663,54.79h-1.661l19.369-109.025h1.661
		C926.462,130.342,941.403,154.693,935.869,184.577z"/>
	<g>
		<polygon fill="none" points="371.435,130.342 306.13,130.342 288.421,228.852 344.872,228.852 337.676,270.357 281.227,270.357 
			261.856,379.383 327.629,379.383 400.935,252.097 378.987,104.941 		"/>
		<path fill="#A61E22" d="M629.304,88.834L643.1,10h-14.58c-13.605,58.743-51.515,78.834-78.909,78.834h-12.172h-18.82h-28.942
			l-43.719,77.478l-11.068-77.478h-51.112h-7.192H257.789L199.128,420.89h104.6h20.113h21.946l61.43-109.025l21.198,109.025h60.875
			l-34.479-194.806l57.638-95.742H564L512.53,420.89h58.11l51.468-290.548h52.575l7.194-41.507H629.304z M327.629,379.383h-65.773
			l19.371-109.025h56.45l7.195-41.506h-56.451l17.709-98.51h65.305l7.552-25.401l21.948,147.156L327.629,379.383z"/>
	</g>
</g>
</svg>
